<?xml version="1.0" encoding="utf-8"?>
<!-- Generator: Adobe Illustrator 18.1.1, SVG Export Plug-In . SVG Version: 6.00 Build 0)  -->
<svg version="1.1" id="Layer_1" xmlns="http://www.w3.org/2000/svg" xmlns:xlink="http://www.w3.org/1999/xlink" x="0px" y="0px"
	 viewBox="0 0 1962 1323.9" enable-background="new 0 0 1962 1323.9" xml:space="preserve">
<rect x="-0.1" fill="#E691A4" width="1962" height="1323.9"/>
<path fill="#F4C4BB" d="M730.3,247.5c47.2-11.1,92.3-21.4,137.1-32.4c10.7-2.6,15.4-9.5,16.1-20.4c2.4-40.7,6.3-81.4,9.9-125.3
	c9.2,5.8,15.8,10.3,22.8,14.3c13.7,8,26.9,16.8,41.4,23.4c27.1,12.3,50.3,0.8,72.3-11.9c15.9-9.2,30.8-19.8,46.3-29.9
	c1.7,17.5,3.6,34.6,5.1,51.7c2.1,24.1,3.9,48.2,6,72.3c1.6,18.3,9.3,26.8,31.8,31.8c38,8.3,76.3,15.7,114.5,23.5
	c-27.1,147.7-110.1,230.4-267.3,216.5c-57.1-5.1-132.5-45.6-169.1-84.9C761.6,337.9,741,293,730.3,247.5z"/>
<path fill="#C82D27" d="M495.9,555.2c17.1,14.6,34,29.4,51.2,43.8c21.9,18.3,44.1,36.2,67.1,54.9c24.6-27.7,48.7-55,75.1-84.7
	c-8.5,32-16.2,61-9.7,91.2c1.1,5.2,13.2,40.3,15,45.2c18.5,49.5,25.4,69.3,43.8,118.9c2.1,5.6,1.1,12.4,2.8,18.3
	c11.8,41.8,14.9,84.8,13.5,127.6c-0.6,19.6-9.8,39.1-15.8,58.4c-8.9,28.5-17.7,57.1-27.8,85.2c-9.9,27.7-22.2,54.7-31.9,82.5
	c-6.7,19.1-7,94.6,5.8,127.5h630.9c15.5-19.7,25.5-61.9-6.6-139.9c-2.1-5-4.6-10.1-6.3-15.3c-6.2-18.4-11.9-36.8-18.2-55.2
	c-11.2-32.8-20.2-66.7-34.7-97.9c-22.2-47.8-13.9-95.6-4.3-143c8.8-43,14.2-88.4,35-127.1c12.5-23.2,28.7-42.9,31.3-79.9
	c2.1-29.5-1.1-59.2-1.8-88.6c11.3,15.3,22.8,31.6,35.2,47.3c6.8,8.6,13.9,17.6,22.8,23.5c14.1,9.3,24.9-3.4,34.6-10.3
	c29.7-21.4,58.3-44.3,87.1-66.9c10.3-8.1,13.2-34.8,5.5-48.8c-20.4-37.2-40.8-74.5-61.9-111.3c-16-28.1-31.7-56.5-50-83.1
	c-10.7-15.6-25.1-29.1-39.6-41.5c-14.8-12.7-31.3-23.4-47.7-33.9c-9.4-6-19.5-12.2-30.5-14.7c-11.4-2.6-23.3,0-35,0
	c-8.7,37.3-18.7,74.1-38.7,107.4c-16.8,28.1-38.8,50.9-65.7,69.4c-45.1,31.1-96.1,34.4-148.5,33.8c-34.2-0.3-66.7-8.1-96-23.7
	c-40.5-21.4-72.2-53.5-91.2-95.9c-10.7-23.9-17.9-49.5-26.6-74.3c-2-5.6-3.9-11.3-5.8-16.9c-8.8,0-17.6-1.5-26.3,0
	c-8.5,1.5-16.1,6.1-24.3,9c-41.3,14.7-70.9,44.2-94.5,79.1c-22.4,33.1-41.7,68.4-61.6,103.1c-15.6,27.2-30.1,55-44.8,82.7
	c-4.1,7.6-17.1,24.5-20.8,32.3C486.2,550.4,495.9,548.4,495.9,555.2z"/>
<path fill="#F5C2BE" d="M881.7,265.9c0-6.5,0-13,0-19.5c0.8-0.8,2.1-1.6,2.2-2.6c2.6-23.8,6.6-47.7,7.2-71.6c0.8-32-1-64-1.6-96
	c2,0,3.9,0,5.9,0c4,5.6,7.3,11.8,12,16.8c11.7,12.7,26.5,20.9,42,28.4c19.4,9.4,38.9,15.1,59.9,8.8c14.4-4.3,28.9-9.5,41.8-17.1
	c12.5-7.3,23-18.1,35.7-28.4c0,9,0.2,16.2,0,23.4c-0.6,19.1-3.2,38.3-1.8,57.2c2,28,7.2,55.7,10.1,83.6c1.2,11.7-1.2,23.7,0.3,35.3
	c1.1,8.5-2.4,13.1-8.4,16.2c-18.9,9.7-37.4,20.3-59.6,21.5c-32.3,1.8-64.3,7.4-95.4-8.9c-12.4-6.5-27.1-8.9-39-17.4
	c-4.5-3.2-8.7-4.7-7.4-12.3C886.5,278,883.1,271.8,881.7,265.9z"/>
<path fill="#EEA9A3" d="M1084.9,89.1c0.6-1.4,1.3-2.7,1.9-4.1c0,0,0,0,0,0c-12.7,10.3-23.2,21.1-35.7,28.3
	c-12.9,7.5-27.4,12.7-41.8,17.1c-21,6.3-40.5,0.6-59.9-8.8c-15.6-7.5-30.3-15.7-42-28.4c-6.7-7.2-10.8-16.9-17.7-23.9
	c-0.1,0-0.1,0.1-0.2,0.1c0.5,34.3,2.7,68.6,1.8,102.9c-0.6,23.9-4.6,47.7-7.2,71.6c-0.1,0.9-1.4,1.7-2.2,2.6V259
	C969.2,234.4,1046,171.5,1084.9,89.1z"/>
<path d="M1102.9,309.1c2.1-7.8,12.3-21.2,14.1-29c0.5-2.3-0.1-4.8-0.3-8.1c-8.8,9.6-20.9,24.9-28.8,33.6c-0.7-0.6,2.8-7.9,2.1-8.5
	c1.7-7.6,3.8-15.2,5.1-22.9c3.7-21.7-3.7-42.4-6.8-63.4c-6.3-42.9-8.3-85.8-0.4-128.5c1.4-7.6,7.3-15,12.6-21.3
	c15.5-18.2,22-39.8,25.9-62.6c27.4,0,54.7,0,82.1,0c2.6,24.1,5.4,48.2,7.8,72.3c3.4,33.4,6.5,66.8,9.7,100.3
	c0.5,5.1,1.3,10.1,2,15.1c0,9.8,0,19.5,0,29.3c-2.2,5.2-5.1,8.8-11.9,8c-2.2-0.3-5.9,2-6.9,4.1c-6,11.9-3.2,7-7.3,19.6
	c-2.7,8.1-15.8,25.5-22.6,24.2c1.6-4.3,3-8.1,4.3-11.8c-6.4,5.8-11.6,12.3-17.2,18.3c-3.4,3.7-7,7.7-11.3,9.9
	c-11.3,5.7-19.1,10.7-30.7,15.9C1121.1,303.6,1106.1,309.1,1102.9,309.1z"/>
<path d="M857.8-1.6c3.6,25.6,13.3,48.5,30,68.4c2.7,3.2,4.7,8,4.9,12.1c1.1,32.2,2.7,64.4,1.9,96.6c-0.6,21.6-4.5,43.1-8,64.5
	c-2.6,16.1-1.5,31.6,3,47c1.5,5.1,1.3,10.7,4.3,15.3c-9.1-9.7-18.1-19.5-27.2-29.1c-3.4,4.2-8.3,14.3,18.2,37.8
	c-30.8,0.2-63.9-24.5-83.2-47.9c-0.5,4.4-0.7,7.3-1.4,13.2c-8.5-15-20.5-25-21.9-41.3c-0.4-5.3-10.6-12.6-16.6-13.4
	c-2.7-0.4-4.4,10.4-7,8.9c0-12.4-0.7-37.9-0.7-50.3c0.7-4.7,1.5-9.5,2-14.2c3.1-32.2,6-64.5,9.3-96.7c2.4-23.7,5.5-47.3,8.3-70.9
	H857.8z"/>
<path fill="#EFC5C1" d="M1003.9,133.9c-6.4,1.2-25.7-0.3-26-0.3c-23.1-1.9-38.5-14.6-56.8-27.3c-20.4-14.2-31.3-36.3-44.1-56.4
	C867,34.3,862,15.5,853.5-1L1129-1c-0.8,4.4-0.7,9.3-2.7,13.2c-8.7,17.6-8.5,28.9-23.5,51.4c-9,13.4-19,29.6-34,38
	c-10.5,5.9-20.2,13.2-30.9,18.6C1027,125.6,1015.9,131.7,1003.9,133.9z"/>
<g>
	<path fill="#961D59" d="M933.6,27.3c12.6-6.9,37.9-8.7,55.7-9.1c13-0.3,26.3,3.7,39.2,4.4c4.2,0.2,9.3,1.9,12.2,3.6
		c2.7,1.6,5.6,3.4,3.2,4.6c-3,1.4-4.1-3.9-11.4-2.3c-27.5,6-61.3-1.3-89.3,0.4c-2.7,0.2-4.5-0.4-7.5,0.7c-2.5,1-7,4.8-7.5,3.9
		c-0.6-0.9,2.3-5.9,5-5.7"/>
</g>
<path fill="#ED8DB4" d="M1038.8,28.5c0,0.4,0,0.9,0,1.3c-0.6,0.2-1.2,0.3-1.7,0.6c-4.1,2.6-8.2,5.3-12.3,8c-7.3,4.7-15.6,7-24.1,7.3
	c-8.9,0.4-18,0.7-26.8-0.7c-12.6-2-25.2-9.6-36.2-15.7c-0.1,0,13.3-1.6,19.1-2c4.1-0.3,8.2-0.5,12.4-0.5c14-0.1,28-0.1,42.1,0
	c3.4,0,6.9,0.1,10.3,0.3c2.5,0.1,4.8,0.3,7.3,0.5C1032.2,27.7,1035.5,28.2,1038.8,28.5z"/>
<path fill="#ED8DB4" d="M936.8,25.9c8.6-7.5,18.6-11.8,30.2-11.9c4.8,0,9.6,0.7,14.4,0.7c9-0.1,17.9-0.4,26.9-0.8
	c10-0.5,18.8,2.8,26.3,8.7c0.3,0.3,3.5,2.6,3.7,3.4c-3.4-0.9-15.3-2.3-16.3-2.4c-6.3-0.7-31.9-0.7-37.3-0.4
	c-7.8,0.5-17-0.5-24.8,0.3c-0.8,0.1-1.5,0-2.3,0.1c-4.1,0.6-8.2,1.2-12.3,1.8c-2.8,0.4-5.6,0.8-8.4,1.2
	C936.8,26.3,936.8,26.1,936.8,25.9z"/>
<path fill="#D2D0D3" d="M855.9,563.1c1.6-0.7,3.2-1.4,5-1.5c4.2-0.1,8.3,1.4,12.1,3c8.2,3.6,16.1,8,24.2,11.8c2,1,4.6,2.2,6.6,1.8
	c8.2-1.5,16.3-3.9,24.5-5.5c4.4-0.9,9-1.2,13.3,0.4c3.3,1.2,6.1,3.1,6.5,6.8c0.4,3.5,1.9,39.1,1,42.5c-2,7.6-3.4,8.4-7.3,16.9
	c-7.8,17.1,5,25.2,5.9,26.1c3.2,3.2,10.4,5.8,12.9,6.2c7.8,1.1,55.7,1.8,63.4,2.3c10.3,0.6,20.4,2.3,29.9,6.6
	c9.8,4.4,17.8,11,26.4,17.7c5.7,4.5,11.8,17.2,13.3,20.1c36.2,122.8,72.5,245.7,108.7,368.5c0,0.6,0.1,1.2,0.1,1.8
	c0.6,4.8,1.5,9.6,1.7,14.4c0.4,8.7-1.1,17.1-3.8,25.4c-4.6,14.2-12.9,25.8-24.4,35.2c-8.2,6.7-17.8,11.2-27.9,14.1
	c-14.3,4.2-28.8,8.2-43.1,12.4c-42.9,12.7-85.9,25.5-128.8,38.3c-9.7,2.9-19.4,5.9-29.1,8.5c-4.7,1.3-9.5,2.4-14.3,2.8
	c-8.4,0.8-16.8,0.3-25-1.7c-16.3-4-29.7-12.7-40.6-25.5c-6.6-7.8-11.2-16.7-14-26.4c-29.8-100.9-59.6-201.9-89.4-302.8
	c-5.8-19.8-11.8-39.6-17.6-59.4c-0.8-2.6-1.5-5.3-1.7-8c-0.8-9,0-17.9,2.7-26.4c5.8-17.8,16.5-32.1,31.5-43.2
	c8.7-6.4,44.3-30.2,54.5-36.7c4.2-2.7,8.5-10.2,9.2-12.5c2.2-7.5,2.8-14.1-9.3-23.3c-5.3-2.9-9.6-5.5-13.4-8.8
	c-4.2-3.6-23.7-33.4-26.5-38.1c-1.7-2.9-1.6-5.6-0.3-8.4c2.4-4.9,7.2-7.4,11.8-9.3c8-3.3,16.3-5.9,24.5-8.9c0.8-0.3,1.8-1,2.2-1.8
	c3-5.1,5.9-10.4,8.9-15.5C844.8,575.9,847.9,567,855.9,563.1z M856.2,578.7c1.1,3.5,4.8,5.5,8.4,4.4c3.4-1,5.5-4.7,4.5-8.1
	c-0.9-3.1-4.5-5.9-8.5-4.4C857.1,571.8,855.1,575.2,856.2,578.7z M1044.2,1192.6c3.3-0.8,3.9-3.9,3.3-6.1c-0.7-2.4-3.8-4.1-6.1-3.4
	c-2.3,0.6-4.1,4-3.3,6.4C1038.8,1191.7,1041.1,1193.8,1044.2,1192.6z"/>
<g>
	<g>
		<path fill="#7B6D68" d="M1147.1,1177.5c0.6-0.5,15.1-3.6,29.1-13.6c12.1-8.6,19.7-21,24.4-35.2c2.7-8.3,4.1-16.7,3.8-25.4
			c-0.2-4.8-1.1-9.6-1.7-14.4c-0.1-0.6-0.1-1.2-0.1-1.8l-108.7-368.5c-1.5-2.9-7.5-15.6-13.3-20.1c-8.6-6.7-16.6-13.3-26.4-17.7
			c-9.5-4.3-19.6-6-29.9-6.6c-7.7-0.5-55.7-1.2-63.4-2.3c-2.5-0.4-9.7-3-12.9-6.2c-0.9-0.9-13.7-8.9-5.9-26.1
			c3.9-8.5,5.3-9.3,7.3-16.9c0.9-3.5-0.6-39.1-1-42.5c-0.4-3.8-3.2-5.7-6.5-6.8c-4.4-1.6-9-1.2-13.3-0.4c-8.2,1.6-16.3,4-24.5,5.5
			c-2,0.4-4.5-0.8-6.6-1.8c-8.1-3.9-16-8.2-24.2-11.8c-3.7-1.6-7.9-3.1-12.1-3c-1.7,0-3.4,0.7-5,1.5c-8,3.8-11.2,12.8-15.6,20.1
			c-3.1,5.1-5.9,10.3-8.9,15.5c-0.5,0.8-1.4,1.5-2.2,1.8c-8.2,3-16.5,5.5-24.5,8.9c-4.6,1.9-9.3,4.4-11.8,9.3
			c-1.4,2.8-1.5,5.5,0.3,8.4c2.8,4.7,22.4,34.5,26.5,38.1c3.8,3.3,8.1,5.9,13.4,8.8c12.1,9.1,11.5,15.7,9.3,23.3
			c-0.7,2.3-5,9.8-9.2,12.5c-10.2,6.6-45.8,30.3-54.5,36.7c-15,11.1-25.7,25.4-31.5,43.2c-2.8,8.5-3.6,17.4-2.7,26.4
			c0.2,2.7,1,5.4,1.7,8c5.8,19.8,11.8,39.6,17.6,59.4c29.8,100.9,59.6,201.9,89.4,302.8c2.9,9.7,7.4,18.6,14,26.4
			c10.9,12.8,24.3,21.5,40.6,25.5c8.2,2,16.6,2.5,25,1.7c0.7-0.1,18.8-4.5,19.5-4.6c-45.4,0.3-52.2-21.5-63.1-39.9
			c-15.1-25.5-22.3-54.8-29.3-83.6c-12-49.3-24-98.6-35.9-148c-8.3-34.4-16.8-69.3-14.9-104.6c2.2-41.4-49.8-80.7-16.2-105
			c86.2-62.5,67.2-82.5,53.6-88.2c-13.6-5.7-35.9-31.9-28.5-46.6c5.9-11.7,25.5-17.1,38.2-20.1c19.6-4.7,32.8-10.5,52.8-13.4
			c3.3-0.5,12.8,0.8,15.5,2.8c3.2,2.3,14.3,29.4,0.3,51.9c-12.7,20.5,20.2,42.6,77.1,45.7c30,1.6,17,47.4,38.9,68
			c33.8,31.8,40.7,81.9,61.8,123.3c37.4,73.3,83.4,144.5,77.1,226.5C1178.4,1124.7,1178,1153,1147.1,1177.5z M864.6,583.4
			c-3.6,1.1-7.3-0.9-8.4-4.4c-1-3.5,1-6.9,4.4-8.1c4-1.5,7.6,1.4,8.5,4.4C870.1,578.7,868,582.3,864.6,583.4z"/>
	</g>
</g>
<path fill="#A59D9A" d="M859.7,1184.9c-35-118.5-69.9-237-104.9-355.4c0.1-0.4,0.2-0.8,0.2-1.3c-0.2-2.3-0.7-4.6-0.8-6.9
	c-0.5-12.7,3.3-24.4,9.1-35.5c1.8-3.5,4.1-6.8,6.5-9.8c3-3.8,6.1-7.5,9.7-10.7c4.5-4,9.4-7.5,14.2-11.1c2.9-2.2,5.9-4.3,8.9-6.4
	c2.5-1.8,5.1-3.5,7.7-5.2c4.7-3.1,9.4-6.3,14.1-9.4c3.9-2.6,7.7-5.1,11.6-7.6c2-1.3,4.1-2.5,6.3-3.5c1.8-0.9,3.3,0,4.1,1.9
	c0.9,2.1,1.8,4.2,2.7,6.2c5.1,10.7,13,18.7,23.3,24.5c8.7,4.9,18,7.3,27.9,7.2c9.8-0.1,19.1-3,27.7-7.7c8.5-4.7,15-11.7,20.1-19.9
	c3.2-5.2,5.4-10.8,6.7-16.7c0.8-3.7,1.3-7.5,1.2-11.2c-0.1-4.9-0.8-9.8-1.4-14.6c-0.3-2,0.5-3,2.3-3.4c0.9-0.2,1.8-0.4,2.8-0.4
	c9.6-0.1,19.2-0.2,28.9-0.1c7.7,0.1,15.4,0.4,23.1,0.7c4.7,0.2,9.3,1,13.9,0.9c6.8-0.2,13.1,1.5,19.4,3.6c4.7,1.6,9.2,4,13.8,5.8
	c4.6,1.8,7.6,6.2,12.2,8.1c0.3,0.1,0.4,0.4,0.6,0.7c2.4,2.4,4.8,4.8,7.2,7.2c4.3,4.2,7.4,9.4,9.6,14.9c2.1,5.3,3.3,10.9,5,16.4
	c32.6,110.4,65.2,220.8,97.7,331.3c1.5,5.2,2.9,10.4,4.1,15.7c1.1,4.7,2.4,9.5,1.5,14.4c-0.8,4.1-1.1,8.3-3.3,12.1
	c-2.4,4-4.2,8.5-6.8,12.4c-4.5,6.8-10.4,12.4-17.8,16c-8.1,3.9-16.6,6.6-25.8,6.6c-7.9,0-15.4-1.6-22.5-5c-6.1-3-12-6.2-18.1-9.2
	c-9.8-5-20.5-7.3-31.2-8.6c-6.6-0.8-13.5-0.6-20.2-0.5c-8.5,0.1-16.8,1.9-24.9,4.4c-9.7,3-19.1,6.9-27.5,12.8
	c-4.9,3.4-9.9,6.7-14.3,10.6c-4.8,4.4-9.4,9.2-13.3,14.5c-4.6,6.2-8.8,12.8-12.5,19.6c-2.7,5.1-5.7,9.8-9.7,14
	c-5.3,5.6-11.6,9.7-18.8,12.3c-4.5,1.6-9.3,3.1-14,3.6c-8.6,0.8-17.2-0.3-25.4-3.2c-6.5-2.3-12-6.2-16.6-11.2c-3.8-4-6.5-9-9.5-13.7
	c-1.2-1.8-2-3.8-2.9-5.8C860.9,1187.7,860.3,1186.3,859.7,1184.9z"/>
<g>
	<g>
		<path fill="#7B6D68" d="M849,690c-2.8-7.3,15.9-10.4,20.7-11.8c7.2-2.1,14.4-4.3,21.6-6.4c7.2-2.1,14.4-4.3,21.6-6.4
			c5.6-1.7,20.9-8.8,25.1-2.7c1,1.5,6.3-0.7,5.8-1.6c-4-5.9-13.8-3-19.3-1.3c-11.2,3.3-22.4,6.7-33.6,10
			c-10.9,3.3-21.9,6.5-32.8,9.8c-4.5,1.4-17.4,4.9-14.7,12C843.8,693,849.5,691.2,849,690L849,690z"/>
	</g>
</g>
<g>
	<g>
		<path fill="#565759" d="M851.9,690.9c-2.5-6.7,14.7-9.4,19-10.7c7.2-2.1,14.4-4.3,21.6-6.4c7.2-2.1,14.4-4.3,21.6-6.4
			c4.9-1.5,19.3-8.2,23-2.8c1.7,2.5,10.6-1.2,9.7-2.6c-4.4-6.5-15.4-3.3-21.4-1.5c-11.2,3.3-22.4,6.7-33.6,10
			c-10.9,3.3-21.9,6.5-32.8,9.8c-4.8,1.5-19.4,5.5-16.5,13.2C843.2,696,852.7,693,851.9,690.9L851.9,690.9z"/>
	</g>
</g>
<g>
	<g>
		<path fill="#7B6D68" d="M833.2,666.9c-4.2-9.9,16.4-13.1,22.6-14.9c9.1-2.7,18.3-5.4,27.4-8.1c9.1-2.7,18.3-5.4,27.4-8.1
			c7.2-2.1,23.6-10.1,28.6-1.3c0.9,1.5,6.3-0.6,5.8-1.6c-4.5-8-16.7-4.4-23.6-2.4c-12.9,3.8-25.9,7.6-38.8,11.4
			c-12.9,3.8-25.9,7.6-38.8,11.4c-5.8,1.7-20.3,6.2-16.5,15.1C828,670,833.7,668.1,833.2,666.9L833.2,666.9z"/>
	</g>
</g>
<g>
	<g>
		<path fill="#565759" d="M835.4,668.7c-3.9-9.2,15.2-12.1,20.9-13.7c9.1-2.7,18.3-5.4,27.4-8.1s18.3-5.4,27.4-8.1
			c6.6-1.9,21.9-9.5,26.5-1.5c1.4,2.5,10.6-1,9.7-2.6c-4.9-8.6-18.3-4.7-25.7-2.6c-12.9,3.8-25.9,7.6-38.8,11.4
			c-12.9,3.8-25.9,7.6-38.8,11.4c-6.1,1.8-22.3,6.7-18.3,16.2C826.8,673.8,836.2,670.7,835.4,668.7L835.4,668.7z"/>
	</g>
</g>
<g>
	<g>
		<path fill="#7B6D68" d="M799.6,628.7c-3.7-6.7,27.4-14,31.7-15.3c12.4-3.8,24.8-7.5,37.2-11.3c12.1-3.7,24.2-7.3,36.2-11
			c6.2-1.9,12.4-3.8,18.6-5.6c4.8-1.4,15.5-5.5,19.3-0.8c0.9,1.1,6.4-0.8,5.4-2c-3-3.7-10.4-2.5-14.4-1.8
			c-6.8,1.1-13.4,3.4-19.9,5.4c-15.9,4.8-31.8,9.7-47.7,14.5c-15.9,4.8-31.8,9.6-47.7,14.5c-3.8,1.2-28.8,7.6-24.6,15.1
			C794.7,631.8,800.2,629.7,799.6,628.7L799.6,628.7z"/>
	</g>
</g>
<g>
	<g>
		<path fill="#565759" d="M802.7,629.6c-3.4-6,26.1-13,30-14.2c12.4-3.8,24.8-7.5,37.2-11.3c12.1-3.7,24.2-7.3,36.2-11
			c6.2-1.9,12.4-3.8,18.6-5.6c4.3-1.3,13.8-5,17.3-0.8c1.6,1.9,10.7-1.3,9.1-3.4c-3.3-4-11.5-2.6-15.9-1.9c-7,1.1-13.7,3.4-20.4,5.5
			c-15.9,4.8-31.8,9.7-47.7,14.5s-31.8,9.6-47.7,14.5c-4.1,1.3-30.9,8.2-26.4,16.3C794.5,634.7,803.6,631.2,802.7,629.6L802.7,629.6
			z"/>
	</g>
</g>
<path fill="none" stroke="#565759" stroke-width="5" stroke-miterlimit="10" d="M860.1,568c-4.7,1.4-7.3,6.3-6,11
	c1.4,4.7,6.3,7.3,11,6c4.7-1.4,7.3-6.3,6-11C869.7,569.3,864.8,566.6,860.1,568z M864.6,583.4c-3.6,1.1-7.3-0.9-8.4-4.4
	c-1-3.5,1-6.9,4.4-8.1c4-1.5,7.6,1.4,8.5,4.4C870.1,578.6,868,582.3,864.6,583.4z"/>
<path fill="#F4C4BD" d="M1016.4,1079.1c13.6-4.2,52,3,48.4-25.4c-31.3-6.9-64.2-5.5-92.5-20.3c-16.6-4.1-80.8-20.3-103.8-18.3
	c0,0-54.1-18.2-73.9-26.7c-34.5-14.8-67.9-32.1-102.1-47.7c-35.6-16.3-71.6-31.5-107.3-47.6c-26.2-11.9-52.2-24.4-81.7-38.2
	c14.6-33.1,28.2-71,47.4-105.8c19.4-35.1,44.6-64.2,59.9-100.5c-13.5-11.5-31.3-27.5-43.4-37.9c-20-17.3-47.6-45.4-67.6-62.6
	c-11.8-10.2-11.2,4.6-21.7,25.3c-29.5,58.2-66.8,110.2-96.7,168.2c-22.2,42.9-48.1,87.8-59.6,134.7c-4.6,18.9-8.9,41.1,0,58.3
	c1.1,2,30.1,27.2,46.5,31.8c43.8,12.1,87.9,23.3,131.7,35.2c47.6,13,95.5,25,142.5,40.2c34.2,11.1,68.5,20.5,103.5,28.9
	c23.6,5.7,46.7,18.7,66.4,33.4c24.1,17.9,48.2,34.8,76,46.6c15.7,6.7,30.9,14.8,45.9,23.1c16.9,9.4,33.2,20,49.9,29.7
	c8.6,5,17.6,7.7,26.9-1.9c-10.2-9.8-20-19.1-29.8-28.4c30.7,16.1,77.3,65,95.6,44c-5.2-7.4-43.2-38.8-48.3-46.1
	c26,21,77,48,84.2,31.9c-26.9-22.7-51.5-43.4-76-64c0.9-1,1.7-2.1,2.6-3.1c20.7,15.2,41.3,30.4,62,45.5c8,5.9,16.1,12,27-2
	C1096.2,1145.8,1049.6,1113.9,1016.4,1079.1z"/>
<path fill="#F4C4BD" d="M1662.7,854.7c-7.2-14.9-15.7-29-23.4-43.7c-8.8-16.9-16.5-34.4-25.9-50.9c-12.5-22-26.3-43.2-39.2-64.9
	c-16.7-28-33-56.2-49.6-84.2c-10.7-18.1-21.7-36-32.6-54c0,0,0,0,0,0c-39.1,30.3-78.3,60.6-119.2,92.3c0,0,0,0,0,0
	c34,57.2,67.7,113.9,102.4,172.4c0,0,0,0,0,0c-35.6,8.2-66.4,16.3-97.6,22.2c-36.9,7-74.5,11-111.2,19c-9.3,2-19.5,4.4-28.7,6.3
	c-38.6,8.1-76.7,21-117.7,11.3c-27.6-6.5-56.5-7.7-85-10.5c-29.8-3-59.7-5.1-89.6-7.4c-3-0.2-7.9,0-8.9,1.7
	c-1.6,2.8-2.4,8.3-0.7,10.4c5.8,7.2,26.9,23.2,74.5,21.2c-12.6,5.7-67.5,17.1-80.7,22.3c-36.9,14.5-76.1,36.3-91,55.1
	c-4.6,5.8,5.7,9.9,16.5,9c14.8-1.2,89.7-42.2,94.5-37.5c3,3,2.7,2-46.5,27.7c-16.9,8.8-36,15.8-37.5,17.8
	c-9.1,12,11.3,13.9,20.7,13.9c12,0,30.6-8.7,30.6-8.7c0,0,0,0,0,0c0.1-0.2,78.5-33.9,80-33.3c8.7,3-104.3,43.3-79.5,51.5
	c1.5,4.5,15.3,3.6,15.7,3.6c18.2-5.1,62.5-29.1,81.2-29.4c-6.9,5.4-55.5,21.4-63.8,26.1c-1.3,0.8-7.2,12.9,27.7,8.1
	c0.9-0.1,1.8,0.1,2.6,0c21.2-4.4,42.3-9.1,63.7-11.6c39.8-4.6,78.9-9.8,116.4-26c20-8.7,42.1-14,63.8-16.9c26.7-3.5,53.9-3,80.9-4
	c31.5-1.1,63-2.2,94.5-2.9c50.4-1.2,100.9-1.6,151.3-3.2c28.9-0.9,58-1.8,86.6-6c10.7-1.6,25.2-10.7,28.9-20
	C1677,906.4,1674.7,879.6,1662.7,854.7z"/>
<g>
	<path fill="#A63054" d="M717.4,911c-53.3-17.1-111.1-38.9-163.7-59.1c11-25.9,10.1-34.9,18.5-66.9c1.2-4.5,4.4-8.7,2.8-13.3
		c-1.2-3.5-4.3-5.6-7.2-7.4c-84.9-52-178.8-77.6-265.8-124c-2.3-1.2-4.7-2.7-5.8-5.3c-1.2-3.2,0.1-6.6,1.5-9.5
		c13.6-29.1,23.4-50.9,38.6-87.7c-46.6-30.2-85.2-55.6-131.7-85.8c-3.6-2.3-7.3-4.9-9.2-9c-2.4-5.3-1.1-11.5,0.6-17
		c8.6-28.5,22.9-54.3,41.6-74.9c2.9-3.2,6.1-6.4,10.2-7.1c3.5-0.6,134.9,124.2,176.8,171.9c-15.1,38.8-15.7,25.7-30.7,64.5
		c-1.3,3.4-2.7,7.1-2,10.9c1.1,5.9,6.4,9.4,11.2,12.1c75.5,42.6,151,85.3,226.6,127.9c3.4,1.9,7.1,4.2,8.8,8.1c1.6,3.7,1,8,0.3,12
		c-2.8,17.1-5.7,34.2-8.5,51.4c-1,5.8-1.9,12.1,0.4,17.6c1.7,4.2,5,7.2,8.2,10c31.9,28.5,63.7,57.1,95.6,85.6
		c-9.4-3.3-10.6-2.2-25.7-7.7"/>
</g>
<g>
	<path fill="#A63054" d="M717,990.9c-46.1,4.9-96.7,7.8-143,10.2c2.8-21.7,0-27.7-0.6-52.8c-0.1-3.6,1.5-7.5-0.8-10.2
		c-1.8-2.1-4.7-2.6-7.4-2.9c-79-9.7-159.2,2-238.6-3.1c-2.1-0.1-4.4-0.4-5.8-1.9c-1.7-1.8-1.4-4.7-1-7.1
		c4.1-24.7,6.9-43.2,10.6-73.8c-43.7-6.5-80-12.1-123.8-18.6c-3.3-0.5-6.9-1.1-9.3-3.4c-3.1-3-3.5-7.8-3.4-12.1
		c0.3-22.7,5.7-45.4,15.8-65.8c1.6-3.2,3.4-6.4,6.4-8.2c2.6-1.5,135,44.6,179.1,64.9c-3.1,32-6.5,23-9.6,55
		c-0.3,2.8-0.5,5.9,0.9,8.3c2.2,3.8,7.2,4.6,11.6,5c69.5,6.1,138.9,12.2,208.4,18.3c3.2,0.3,6.6,0.7,8.8,2.9c2.1,2.1,2.6,5.3,3,8.3
		c1.7,12.9,3.3,25.8,5,38.8c0.6,4.4,1.3,9.1,4.4,12.2c2.3,2.4,5.6,3.4,8.8,4.4c31.7,10,63.4,20,95.2,30c-8.2,0.7-8.9,1.8-22.1,2.7"
		/>
</g>
<g>
	<path fill="#C24D71" d="M713.5,906.1c-52.7-19-109.6-42.9-161.5-65.1c11.9-25.5,11.3-34.5,20.9-66.2c1.4-4.5,4.7-8.6,3.3-13.2
		c-1.1-3.5-4.1-5.8-7-7.6c-82.9-55.1-175.8-84.1-261.1-133.7c-2.2-1.3-4.6-2.8-5.6-5.5c-1.1-3.2,0.4-6.6,1.8-9.5
		c14.6-28.6,25.3-50,41.8-86.3c-45.4-31.9-83.1-58.7-128.5-90.5c-3.5-2.4-7.1-5.1-8.9-9.3c-2.2-5.4-0.6-11.6,1.2-16.9
		c9.6-28.2,24.9-53.5,44.3-73.3c3-3.1,6.4-6.2,10.4-6.7c3.5-0.5,130.2,129,170.4,178.3c-16.5,38.2-16.6,25.1-33.1,63.3
		c-1.5,3.4-2.9,7-2.4,10.8c0.9,5.9,6.1,9.6,10.7,12.5c73.9,45.4,147.8,90.7,221.7,136.1c3.4,2.1,7,4.4,8.5,8.4
		c1.5,3.8,0.7,8.1-0.1,12c-3.5,17-6.9,34-10.4,51c-1.2,5.8-2.3,12-0.2,17.6c1.6,4.2,4.8,7.3,7.9,10.3c30.8,29.7,61.6,59.4,92.4,89.1
		c-9.3-3.6-10.5-2.6-25.4-8.6"/>
</g>
<g>
	<path fill="#C24D71" d="M710.1,986c-46.2,3.2-97,4.2-143.3,4.9c3.6-21.5,1-27.7,1.3-52.8c0-3.6,1.8-7.5-0.4-10.3
		c-1.7-2.1-4.6-2.7-7.3-3.2c-78.6-12.6-159.1-3.9-238.3-11.9c-2.1-0.2-4.3-0.5-5.7-2.1c-1.6-1.9-1.2-4.7-0.7-7.2
		c5-24.6,8.5-42.9,13.3-73.4c-43.5-8.1-79.5-15.1-123-23.2c-3.3-0.6-6.9-1.3-9.2-3.8c-3-3.1-3.2-7.9-3-12.2
		c1.1-22.7,7.4-45.2,18.2-65.1c1.7-3.1,3.6-6.3,6.7-8c2.7-1.4,133.3,49.5,176.6,71.4c-4.3,31.9-7.4,22.8-11.6,54.6
		c-0.4,2.8-0.7,5.8,0.6,8.3c2.1,3.9,7.1,4.8,11.4,5.4c69.2,8.6,138.4,17.3,207.6,25.9c3.1,0.4,6.6,0.9,8.7,3.2
		c2,2.2,2.4,5.4,2.7,8.4c1.2,13,2.4,25.9,3.5,38.9c0.4,4.4,0.9,9.1,3.9,12.4c2.2,2.4,5.5,3.6,8.6,4.8c31.3,11.1,62.7,22.3,94,33.4
		c-8.2,0.4-8.9,1.5-22.2,1.9"/>
</g>
</svg>
